{"title":"Restitution 2011 DVDRiP AC3 XViD-SIC","uid":6815354,"size":1468344959,"categoryP":"video","categoryS":"movies","magnet":"?xt=urn:btih:fbb317cf14206dc86972f561e59ef4f3d276a998&amp;dn=Restitution+2011+DVDRiP+AC3+XViD-SIC&amp;tr=udp%3A%2F%2Ftracker.openbittorrent.com%3A80&amp;tr=udp%3A%2F%2Fopen.demonii.com%3A1337&amp;tr=udp%3A%2F%2Ftracker.coppersurfer.tk%3A6969&amp;tr=udp%3A%2F%2Fexodus.desync.com%3A6969","seeders":2,"leechers":0,"uploader":"LegendET","files":2,"time":1321184193,"description":"\n[img]http://img13.imageshack.us/img13/8246/piopi.jpg[/img]\n\n\nGenre : Crime / Thriller\n\nPlot : A true crime writer investigating a small town murder spree uncovers the devastating truth that changes the town forever.\n\n\n\nRestitution.2011.DVDRip.XviD.AC3-SiC\nGeneral\nComplete name : Restitution.2011.DVDRip.XviD.AC3-SiC.avi\nFormat : AVI\nFormat/Info : Audio Video Interleave\nFile size : 1.37 GiB\nDuration : 1h 40mn\nOverall bit rate : 1 944 Kbps\nVideoID : 0\nFormat : MPEG-4 Visual\nFormat profile : Advanced Simple@L5\nFormat settings, BVOP : Yes\nFormat settings, QPel : No\nFormat settings, GMC : No warppoints\nFormat settings, Matrix : Default (MPEG)\nMuxing mode : Packed bitstream\nCodec ID : XVID\nCodec ID/Hint : XviD\nDuration : 1h 40mn\nBit rate : 1 552 Kbps\nWidth : 720 pixels\nHeight : 384 pixels\nDisplay aspect ratio : 1.875\nFrame rate : 23.976 fps\nColor space : YUV\nChroma subsampling : 4:2:0\nBit depth : 8 bits\nScan type : Progressive\nBits/(Pixel*Frame) : 0.234\nStream size : 1.09 GiB (80%)\nWriting library : XviD 64\nAudio\nID : 1\nFormat : AC-3\nFormat/Info : Audio Coding 3\nMode extension : CM (complete main)\nCodec ID : 2000\nDuration : 1h 40mn\nBit rate mode : Constant\nBit rate : 384 Kbps\nChannel(s) : 6 channels\nChannel positions : Front: L C R, Side: L R, LFE\nSampling rate : 48.0 KHz\nBit depth : 16 bits\nStream size : 277 MiB (20%)\nAlignment : Aligned on interleaves\ninterleave, duration : 64 ms (1.53 video frames)\nInterleave, preload duration : 192 \nTitle : Restitution T80 3_2ch 384Kbps DELAY 0ms\n &lt;a href=&quot;\nhttp://www.imdb.com/title/tt1452599/&quot; rel=&quot;nofollow&quot; target=&quot;_NEW&quot;&gt;\nhttp://www.imdb.com/title/tt1452599/&lt;/a&gt;\n\n\n","torrent":{"xt":"urn:btih:fbb317cf14206dc86972f561e59ef4f3d276a998","amp;dn":"Restitution+2011+DVDRiP+AC3+XViD-SIC","amp;tr":["udp%3A%2F%2Ftracker.openbittorrent.com%3A80","udp%3A%2F%2Fopen.demonii.com%3A1337","udp%3A%2F%2Ftracker.coppersurfer.tk%3A6969","udp%3A%2F%2Fexodus.desync.com%3A6969"],"infoHash":"fbb317cf14206dc86972f561e59ef4f3d276a998","infoHashBuffer":{"type":"Buffer","data":[251,179,23,207,20,32,109,200,105,114,245,97,229,158,244,243,210,118,169,152]},"announce":[],"urlList":[]}}